<svg width="148" height="20" viewBox="0 0 148 20" fill="none" xmlns="http://www.w3.org/2000/svg">
<path d="M0 13.1818C0.0782717 17.9144 3.52222 20 7.77498 20C11.4798 20 15.1847 18.2888 15.1847 14.0107C15.1847 12.0321 14.0106 9.89305 11.5581 9.14438C10.5928 8.85027 6.47045 7.75401 6.18346 7.6738C4.85284 7.29946 3.96576 6.5508 3.96576 5.2139C3.96576 3.28877 5.87037 2.72727 7.38362 2.72727C9.62741 2.72727 11.245 3.63636 11.4016 6.09626H14.6629C14.6629 2.1123 11.4016 0 7.51407 0C4.1484 0 0.704445 1.79144 0.704445 5.61497C0.704445 7.59358 1.6437 9.57219 4.82675 10.4545C7.38362 11.1765 9.07951 11.5241 10.384 12.0321C11.1407 12.3262 11.9234 12.9144 11.9234 14.385C11.9234 15.8289 10.8537 17.2727 7.9837 17.2727C5.37465 17.2727 3.26132 16.123 3.26132 13.1818H0Z" fill="#1972DB"/>
<path d="M33.8769 6.52406C33.4856 2.40642 30.1721 0.0267376 25.9715 0C20.3881 0 17.0485 4.54545 17.0485 10C17.0485 15.4545 20.3881 20 25.9715 20C30.4852 20 33.6421 16.8449 33.903 12.2727H30.72C30.4591 15.0535 28.8675 17.2727 25.9715 17.2727C21.9796 17.2727 20.3099 13.6631 20.3099 10C20.3099 6.3369 21.9796 2.72727 25.9715 2.72727C28.6849 2.72727 30.0677 4.33155 30.6156 6.52406H33.8769Z" fill="#1972DB"/>
<path d="M36.869 19.5455H40.1303V0.454544H36.869V19.5455Z" fill="#1972DB"/>
<path d="M44.1305 19.5455H57.7237V16.6578H47.3918V11.0695H56.7844V8.34225H47.3918V3.34225H57.5411V0.454544H44.1305V19.5455Z" fill="#1972DB"/>
<path d="M60.434 19.5455H63.5388V5.50802H63.6171L72.0965 19.5455H75.5405V0.454544H72.4357V14.5187H72.3835L63.878 0.454544H60.434V19.5455Z" fill="#1972DB"/>
<path d="M95.2305 6.52406C94.8391 2.40642 91.5256 0.0267376 87.325 0C81.7417 0 78.4021 4.54545 78.4021 10C78.4021 15.4545 81.7417 20 87.325 20C91.8387 20 94.9957 16.8449 95.2566 12.2727H92.0735C91.8126 15.0535 90.2211 17.2727 87.325 17.2727C83.3332 17.2727 81.6634 13.6631 81.6634 10C81.6634 6.3369 83.3332 2.72727 87.325 2.72727C90.0385 2.72727 91.4212 4.33155 91.9691 6.52406H95.2305Z" fill="#1972DB"/>
<path d="M98.2225 19.5455H111.816V16.6578H101.484V11.0695H110.876V8.34225H101.484V3.34225H111.633V0.454544H98.2225V19.5455Z" fill="#1972DB"/>
<path d="M113.952 13.7166H121.544V10.8289H113.952V13.7166Z" fill="#1972DB"/>
<path d="M124.797 19.5455H128.058V0.454544H124.797V19.5455Z" fill="#1972DB"/>
<path d="M135.32 3.18182H138.529C143.643 3.18182 144.739 6.17647 144.739 10C144.739 13.8235 143.643 16.8182 138.529 16.8182H135.32V3.18182ZM132.059 19.5455H139.781C145.521 19.5455 148 15.2674 148 10C148 4.73262 145.521 0.454544 139.781 0.454544H132.059V19.5455Z" fill="#1972DB"/>
</svg>
